PathFileType	4	(X/Y/Z)	C:\Users\xlb\Desktop\20210112\20210112\bx_n_10_501.trc
DataRate	CameraRate	NumFrames	NumMarkers	Units	OrigDataRate	OrigDataStartFrame	OrigNumFrames
50.00	50.00	       4	43	mm	50.00	1	       436
Frame#	Time	Top.Head			R.Acromium			L.Acromium			Sternum			R.ASIS			L.ASIS			V.Sacral			R.Thigh.Upper			R.Thigh.Front			R.Thigh.Rear			R.Knee.Lat			R.Knee.Med			R.Shank.Upper			R.Shank.Front			R.Shank.Rear			R.Ankle.Lat			R.Midfoot.Lat			R.Toe.Lat			R.Toe.Tip			R.Toe.Med			R.Ankle.Med			R.Midfoot.Sup			R.Heel			L.Thigh.Upper			L.Thigh.Front			L.Thigh.Rear			L.Knee.Lat			L.Knee.Med			L.Shank.Upper			L.Shank.Front			L.Shank.Rear			L.Ankle.Lat			L.Midfoot.Lat			L.Toe.Lat			L.Toe.Tip			L.Toe.Med			L.Ankle.Med			L.Midfoot.Sup			L.Heel			origin1 front left			origin2 front right			origin 3 back right			origin 4 back leftt			
		X1	Y1	Z1	X2	Y2	Z2	X3	Y3	Z3	X4	Y4	Z4	X5	Y5	Z5	X6	Y6	Z6	X7	Y7	Z7	X8	Y8	Z8	X9	Y9	Z9	X10	Y10	Z10	X11	Y11	Z11	X12	Y12	Z12	X13	Y13	Z13	X14	Y14	Z14	X15	Y15	Z15	X16	Y16	Z16	X17	Y17	Z17	X18	Y18	Z18	X19	Y19	Z19	X20	Y20	Z20	X21	Y21	Z21	X22	Y22	Z22	X23	Y23	Z23	X24	Y24	Z24	X25	Y25	Z25	X26	Y26	Z26	X27	Y27	Z27	X28	Y28	Z28	X29	Y29	Z29	X30	Y30	Z30	X31	Y31	Z31	X32	Y32	Z32	X33	Y33	Z33	X34	Y34	Z34	X35	Y35	Z35	X36	Y36	Z36	X37	Y37	Z37	X38	Y38	Z38	X39	Y39	Z39	X40	Y40	Z40	X41	Y41	Z41	X42	Y42	Z42	X43	Y43	Z43	

1	0.000	-671.76373	128.59985	1849.01196	-690.43970	-65.02022	1535.43567	-733.25317	295.09076	1526.52844	-606.48132	120.80928	1353.90649	-589.23407	6.15904	1054.92346	-608.67706	254.21318	1066.70386	-798.16882	97.75274	1052.03418	-647.07324	-63.46666	872.11169	-576.45355	8.09960	805.13660	-670.87390	-53.27922	758.02686	-694.96405	-26.41283	614.71326	-684.18054	81.98096	573.35449	-702.88208	-24.82413	568.25165	-655.03430	26.86666	517.66864	-747.70703	-39.07891	489.32819	-755.83588	-15.63788	207.15373	-648.94012	-65.36077	163.96617	-608.02808	-73.87056	159.17863	-549.56995	-31.59851	164.25084	-596.83948	26.25474	165.54776	-715.73462	74.95121	214.33711	-671.72968	56.38071	153.49216	-790.68036	42.59146	175.49414	-687.41266	293.88287	871.38733	-583.73944	223.05257	817.97931	-694.31311	275.81573	743.79492	-723.99286	255.09122	641.99188	-684.59790	147.99448	579.09381	-725.46143	250.37245	576.11627	-671.74408	209.09535	534.55383	-766.64520	259.56790	502.38181	-767.98663	225.34773	205.50725	-661.36438	298.12592	157.58838	-624.94910	307.13297	158.54845	-555.92242	257.47733	164.41321	-591.89215	219.86917	174.29314	-711.11603	152.53581	216.35181	-674.13995	171.53610	157.32733	-794.52020	175.60840	184.54158	-528.03583	304.25760	146.54501	-517.30908	-72.79568	143.29193	-875.85034	-78.68372	141.27127	-882.51721	295.96179	144.49458	
2	0.020	-671.84760	128.41408	1848.99475	-690.53381	-65.12133	1535.38867	-733.30841	295.09506	1526.51746	-606.52283	120.88701	1353.96948	-589.27869	6.10657	1054.95715	-608.79456	254.32390	1066.74512	-798.26257	97.74706	1051.98840	-647.04010	-63.49812	872.17157	-576.54596	8.22405	805.14545	-670.87402	-53.30236	758.02454	-694.96906	-26.33897	614.64661	-684.20886	82.03854	573.40582	-702.80603	-24.94336	568.29901	-655.14740	26.81779	517.58087	-747.67322	-39.11199	489.22900	-755.84607	-15.69485	207.20139	-648.94183	-65.39634	164.03297	-608.00055	-73.87521	159.20178	-549.55780	-31.56090	164.22923	-596.80640	26.29708	165.54422	-715.96893	74.94786	214.32651	-671.77246	56.37094	153.62779	-790.69171	42.58488	175.49481	-687.41693	293.83282	871.40234	-583.75690	223.05392	817.97571	-694.31256	275.91327	743.78223	-723.98730	255.14609	642.09839	-684.59326	147.99799	579.08606	-725.44989	250.40755	576.13232	-671.71869	209.03830	534.66144	-766.63861	259.53021	502.30994	-768.01807	225.41234	205.42381	-661.35950	298.18207	157.49100	-624.89587	307.09296	158.47987	-555.95972	257.45251	164.46678	-591.82434	219.95717	174.22249	-711.15302	152.62184	216.33035	-674.13995	171.53606	157.32738	-794.60834	175.63751	184.49652	-528.07251	304.30811	146.45705	-517.37225	-72.71805	143.15067	-875.85345	-78.69410	141.26080	-882.55090	296.05023	144.54146	
3	0.040	-671.86810	128.25043	1848.98535	-690.62946	-65.22690	1535.35901	-733.36230	295.07263	1526.50977	-606.59283	120.92075	1354.01294	-589.32892	6.07712	1054.98291	-608.89160	254.40858	1066.79016	-798.35901	97.73769	1051.96179	-647.04388	-63.52052	872.21448	-576.65485	8.38166	805.15106	-670.88220	-53.30164	758.02649	-694.97656	-26.28858	614.58173	-684.21960	82.07624	573.46832	-702.71753	-25.02593	568.32349	-655.24786	26.77813	517.52216	-747.63397	-39.12404	489.16461	-755.84857	-15.73198	207.23732	-648.96173	-65.40410	164.05717	-607.97150	-73.88040	159.23207	-549.54401	-31.53024	164.21356	-596.79010	26.31700	165.54126	-716.14349	74.97346	214.32323	-671.79688	56.37967	153.72868	-790.70123	42.57843	175.48866	-687.42749	293.82501	871.41528	-583.77936	223.05559	817.98413	-694.33203	275.98666	743.76453	-723.98962	255.16818	642.16370	-684.59570	147.99614	579.09015	-725.44800	250.42078	576.14374	-671.70654	208.99991	534.72882	-766.63245	259.50980	502.28220	-768.04504	225.47055	205.37741	-661.36517	298.21268	157.42772	-624.84741	307.07556	158.44095	-555.97827	257.42264	164.45107	-591.76764	220.01010	174.19151	-711.19275	152.70264	216.30536	-674.13989	171.53590	157.32756	-794.66193	175.65506	184.46925	-528.09052	304.32571	146.40559	-517.40961	-72.67242	143.06732	-875.85516	-78.71472	141.24933	-882.57312	296.12219	144.57713	
4	0.060	-671.79211	128.12540	1848.97644	-690.71893	-65.33533	1535.35132	-733.41748	295.01227	1526.50708	-606.69922	120.90424	1354.02625	-589.38123	6.08753	1055.00415	-608.96570	254.44606	1066.84534	-798.44598	97.74045	1051.95020	-647.09790	-63.52898	872.23322	-576.78564	8.58073	805.16168	-670.89825	-53.27390	758.03320	-694.98767	-26.25806	614.52472	-684.21942	82.09589	573.52527	-702.62207	-25.04108	568.30341	-655.31616	26.74659	517.49384	-747.59161	-39.11244	489.12515	-755.84363	-15.74596	207.25786	-648.98615	-65.39314	164.04692	-607.95483	-73.88393	159.26151	-549.52734	-31.51972	164.21797	-596.79449	26.30831	165.53773	-716.24603	75.03136	214.30568	-671.80286	56.39950	153.79744	-790.70197	42.57254	175.47845	-687.44806	293.86996	871.44592	-583.81268	223.05948	817.99976	-694.37079	276.03137	743.74402	-723.99066	255.16908	642.19037	-684.61359	147.98280	579.11969	-725.45447	250.41628	576.15332	-671.71075	208.98932	534.75415	-766.62341	259.51083	502.29501	-768.06757	225.51480	205.36688	-661.37885	298.20074	157.39281	-624.81665	307.07275	158.42877	-555.98810	257.40118	164.39355	-591.73401	220.02141	174.20200	-711.23138	152.75037	216.28169	-674.13983	171.53563	157.32785	-794.67914	175.66203	184.46387	-528.08844	304.31042	146.40497	-517.42102	-72.66680	143.05566	-875.84979	-78.74435	141.24390	-882.57550	296.15994	144.59880	
